<?xml version="1.0" encoding="utf-8"?>
<!-- Generator: Adobe Illustrator 22.0.1, SVG Export Plug-In . SVG Version: 6.00 Build 0)  -->
<svg version="1.1" id="图层_1" xmlns="http://www.w3.org/2000/svg" xmlns:xlink="http://www.w3.org/1999/xlink" x="0px" y="0px"
	 viewBox="0 0 1024 1024" style="enable-background:new 0 0 1024 1024;" xml:space="preserve">
<style type="text/css">
	.st0{fill-rule:evenodd;clip-rule:evenodd;}
</style>
<g>
	<g>
		<path class="st0" d="M102.8,395.2C46.3,395.2,0.4,441,0.4,497.5c0,56.5,45.8,102.4,102.4,102.4c56.5,0,102.4-45.8,102.4-102.4
			C205.2,441,159.3,395.2,102.8,395.2z M512.2,395.2c-56.5,0-102.4,45.8-102.4,102.4c0,56.5,45.8,102.4,102.4,102.4
			c56.5,0,102.4-45.8,102.4-102.4C614.6,441,568.7,395.2,512.2,395.2z M921.6,395.2c-56.5,0-102.4,45.8-102.4,102.4
			c0,56.5,45.8,102.4,102.4,102.4c56.5,0,102.4-45.8,102.4-102.4C1024,441,978.2,395.2,921.6,395.2z"/>
	</g>
</g>
</svg>
