<?xml version="1.0" encoding="utf-8"?>
<!-- Generator: Adobe Illustrator 22.0.1, SVG Export Plug-In . SVG Version: 6.00 Build 0)  -->
<svg version="1.1" id="图层_1" xmlns="http://www.w3.org/2000/svg" xmlns:xlink="http://www.w3.org/1999/xlink" x="0px" y="0px"
	 viewBox="0 0 1024 1024" style="enable-background:new 0 0 1024 1024;" xml:space="preserve">
<style type="text/css">
	.st0{fill-rule:evenodd;clip-rule:evenodd;}
</style>
<g>
	<g>
		<path class="st0" d="M976.8,912.3L801.3,736.8c-3-3-6.2-5.6-9.5-7.8c71.7-77.5,115.5-181.1,115.5-295
			c0-239.9-194.5-434.4-434.4-434.4C232.8-0.4,38.3,194.1,38.3,434s194.5,434.4,434.4,434.4c83.3,0,161.1-23.5,227.2-64.1
			c3,7.3,7.5,14.2,13.5,20.2l175.5,175.5c24.2,24.2,63.5,24.2,87.8,0C1001.1,975.8,1001.1,936.5,976.8,912.3z M472.8,744.3
			c-171.4,0-310.3-138.9-310.3-310.3c0-171.4,138.9-310.3,310.3-310.3c171.4,0,310.3,138.9,310.3,310.3
			C783.1,605.4,644.2,744.3,472.8,744.3z"/>
	</g>
</g>
</svg>
