<?xml version="1.0" encoding="utf-8"?>
<!-- Generator: Adobe Illustrator 22.0.1, SVG Export Plug-In . SVG Version: 6.00 Build 0)  -->
<svg version="1.1" id="图层_1" xmlns="http://www.w3.org/2000/svg" xmlns:xlink="http://www.w3.org/1999/xlink" x="0px" y="0px"
	 viewBox="0 0 1024 1024" style="enable-background:new 0 0 1024 1024;" xml:space="preserve">
<style type="text/css">
	.st0{fill-rule:evenodd;clip-rule:evenodd;}
</style>
<g>
	<g>
		<path class="st0" d="M1024,613.8V409.2H918.7c-10.9-43.3-28.5-83.9-51.7-120.7l72.9-72.9L808.4,84L735.5,157
			c-36.8-23.2-77.4-40.8-120.7-51.7V0H410.2v105.3c-43.3,10.9-83.9,28.5-120.7,51.7L216.6,84L85,215.6l72.9,72.9
			c-23.2,36.8-40.8,77.4-51.7,120.7H1v204.6h105.3c10.9,43.3,28.5,83.9,51.7,120.7L85,807.4l131.5,131.5l72.9-72.9
			c36.8,23.2,77.4,40.8,120.7,51.7V1023h204.6V917.7c43.3-10.9,83.9-28.5,120.7-51.7l72.9,72.9l131.5-131.5L867,734.5
			c23.2-36.8,40.8-77.4,51.7-120.7H1024z M512.5,837.6c-180.1,0-326.1-146-326.1-326.1s146-326.1,326.1-326.1
			c180.1,0,326.1,146,326.1,326.1S692.6,837.6,512.5,837.6z"/>
	</g>
</g>
</svg>
