<svg xmlns="http://www.w3.org/2000/svg">
    <symbol id="exit" viewBox="0 0 1024 1024">
        <g> <g> <path class="st0" d="M1012.6,493c-16.4-9.6-156.6-91.5-243.4-142.1V102.6C769.1,45.9,723.2,0,666.6,0h-564C45.9,0,0,45.9,0,102.6
			v820.4c0,56.6,45.9,102.5,102.6,102.5h564c38,0,71.1-20.6,88.8-51.3h13.7V674.8c88.6-51.7,231.4-135.2,243.4-142.3
			C1027.7,523.4,1027.9,502,1012.6,493z M769.1,922.9H102.6l0-820.4h666.6V922.9z"/> </g> </g> 
    </symbol>
    <symbol id="more" viewBox="0 0 1024 1024">
        <g> <g> <path class="st0" d="M102.8,395.2C46.3,395.2,0.4,441,0.4,497.5c0,56.5,45.8,102.4,102.4,102.4c56.5,0,102.4-45.8,102.4-102.4
			C205.2,441,159.3,395.2,102.8,395.2z M512.2,395.2c-56.5,0-102.4,45.8-102.4,102.4c0,56.5,45.8,102.4,102.4,102.4
			c56.5,0,102.4-45.8,102.4-102.4C614.6,441,568.7,395.2,512.2,395.2z M921.6,395.2c-56.5,0-102.4,45.8-102.4,102.4
			c0,56.5,45.8,102.4,102.4,102.4c56.5,0,102.4-45.8,102.4-102.4C1024,441,978.2,395.2,921.6,395.2z"/> </g> </g> 
    </symbol>
    <symbol id="search" viewBox="0 0 1024 1024">
        <g> <g> <path class="st0" d="M976.8,912.3L801.3,736.8c-3-3-6.2-5.6-9.5-7.8c71.7-77.5,115.5-181.1,115.5-295
			c0-239.9-194.5-434.4-434.4-434.4C232.8-0.4,38.3,194.1,38.3,434s194.5,434.4,434.4,434.4c83.3,0,161.1-23.5,227.2-64.1
			c3,7.3,7.5,14.2,13.5,20.2l175.5,175.5c24.2,24.2,63.5,24.2,87.8,0C1001.1,975.8,1001.1,936.5,976.8,912.3z M472.8,744.3
			c-171.4,0-310.3-138.9-310.3-310.3c0-171.4,138.9-310.3,310.3-310.3c171.4,0,310.3,138.9,310.3,310.3
			C783.1,605.4,644.2,744.3,472.8,744.3z"/> </g> </g> 
    </symbol>
    <symbol id="setting" viewBox="0 0 1024 1024">
        <g> <g> <path class="st0" d="M1024,613.8V409.2H918.7c-10.9-43.3-28.5-83.9-51.7-120.7l72.9-72.9L808.4,84L735.5,157
			c-36.8-23.2-77.4-40.8-120.7-51.7V0H410.2v105.3c-43.3,10.9-83.9,28.5-120.7,51.7L216.6,84L85,215.6l72.9,72.9
			c-23.2,36.8-40.8,77.4-51.7,120.7H1v204.6h105.3c10.9,43.3,28.5,83.9,51.7,120.7L85,807.4l131.5,131.5l72.9-72.9
			c36.8,23.2,77.4,40.8,120.7,51.7V1023h204.6V917.7c43.3-10.9,83.9-28.5,120.7-51.7l72.9,72.9l131.5-131.5L867,734.5
			c23.2-36.8,40.8-77.4,51.7-120.7H1024z M512.5,837.6c-180.1,0-326.1-146-326.1-326.1s146-326.1,326.1-326.1
			c180.1,0,326.1,146,326.1,326.1S692.6,837.6,512.5,837.6z"/> </g> </g> 
    </symbol></svg>